<svg height="415.492pt" viewBox="0 0 415.492 415.492" width="415.492pt" xmlns="http://www.w3.org/2000/svg"><path d="m415.492188 207.746094c0 114.734375-93.011719 207.746094-207.746094 207.746094s-207.746094-93.011719-207.746094-207.746094 93.011719-207.746094 207.746094-207.746094 207.746094 93.011719 207.746094 207.746094zm0 0" fill="#f1c48b"/><path d="m311.789062 90.035156-30.613281-30.609375-178.695312 178.695313 30.613281 30.609375c12.3125-12.3125 32.28125-12.3125 44.59375 0 12.316406 12.316406 12.316406 32.285156 0 44.597656l30.609375 30.613281 178.695313-178.699218-30.609376-30.609376c-12.316406 12.316407-32.28125 12.316407-44.597656 0-12.3125-12.316406-12.3125-32.28125.003906-44.597656zm0 0" fill="#e0667d"/><path d="m208.296875 349.941406c-1.589844 0-3.117187-.632812-4.242187-1.757812l-30.609376-30.613282c-1.128906-1.125-1.757812-2.648437-1.757812-4.242187s.628906-3.117187 1.757812-4.242187c4.820313-4.820313 7.476563-11.234376 7.476563-18.054688s-2.65625-13.234375-7.476563-18.054688c-4.824218-4.824218-11.238281-7.480468-18.058593-7.480468-6.820313 0-13.230469 2.65625-18.054688 7.480468-2.34375 2.34375-6.140625 2.34375-8.484375 0l-30.613281-30.613281c-1.125-1.125-1.757813-2.648437-1.757813-4.242187 0-1.589844.632813-3.117188 1.757813-4.242188l178.699219-178.695312c2.339844-2.34375 6.140625-2.34375 8.480468 0l30.613282 30.613281c2.34375 2.339844 2.34375 6.140625 0 8.484375-9.953125 9.953125-9.953125 26.152344 0 36.109375 4.824218 4.824219 11.234375 7.480469 18.054687 7.480469 6.820313 0 13.230469-2.65625 18.054688-7.480469 2.34375-2.34375 6.144531-2.34375 8.484375 0l30.613281 30.613281c1.125 1.125 1.757813 2.648438 1.757813 4.238282 0 1.59375-.632813 3.121093-1.757813 4.242187l-178.695313 178.699219c-1.125 1.121094-2.648437 1.757812-4.242187 1.757812zm-22.457031-36.949218 22.457031 22.460937 170.210937-170.210937-22.460937-22.457032c-6.351563 4.601563-13.964844 7.085938-21.960937 7.085938-10.027344 0-19.453126-3.90625-26.539063-10.996094-13.191406-13.191406-14.492187-33.835938-3.90625-48.5l-22.460937-22.464844-170.214844 170.210938 22.460937 22.460937c6.351563-4.601562 13.964844-7.085937 21.960938-7.085937 10.027343 0 19.453125 3.902344 26.542969 10.992187 7.089843 7.089844 10.992187 16.515625 10.992187 26.542969.003906 7.996094-2.480469 15.609375-7.082031 21.960938zm0 0" fill="#504774"/><path d="m237.804688 102.164062-30.613282-30.613281-178.695312 178.695313 30.613281 30.613281c12.3125-12.3125 32.277344-12.3125 44.59375 0 12.316406 12.316406 12.316406 32.28125 0 44.597656l30.613281 30.609375 178.695313-178.695312-30.609375-30.609375c-12.3125 12.3125-32.28125 12.3125-44.597656 0-12.316407-12.316407-12.316407-32.28125 0-44.597657zm0 0" fill="#d5e6f7"/><path d="m266.972656 223.40625 46.039063-46.035156-30.613281-30.609375c-12.3125 12.3125-32.28125 12.3125-44.59375 0-12.316407-12.316407-12.316407-32.28125 0-44.597657l-30.613282-30.613281-46.035156 46.039063zm0 0" fill="#a0d1f2"/><path d="m79.761719 235.164062 83.472656-83.476562 14.292969 14.296875-83.472656 83.472656zm0 0" fill="#7babf3"/><path d="m107.433594 262.835938 83.472656-83.472657 14.292969 14.292969-83.472657 83.472656zm0 0" fill="#7babf3"/><path d="m176.84375 248.769531 41.734375-41.734375 14.292969 14.292969-41.734375 41.734375zm0 0" fill="#7babf3"/><g fill="#504774"><path d="m134.316406 362.066406c-1.59375 0-3.117187-.628906-4.242187-1.757812l-30.613281-30.609375c-1.125-1.128907-1.757813-2.652344-1.757813-4.242188 0-1.59375.632813-3.117187 1.757813-4.242187 4.824218-4.824219 7.480468-11.234375 7.480468-18.054688 0-6.820312-2.65625-13.234375-7.480468-18.054687-4.824219-4.824219-11.234376-7.480469-18.054688-7.480469s-13.230469 2.65625-18.054688 7.480469c-2.25 2.25-6.234374 2.25-8.484374 0l-30.613282-30.613281c-2.34375-2.34375-2.34375-6.140626 0-8.484376l178.695313-178.699218c2.25-2.25 6.234375-2.25 8.484375 0l30.613281 30.613281c2.34375 2.34375 2.34375 6.140625 0 8.484375-9.957031 9.957031-9.957031 26.15625 0 36.113281 4.824219 4.820313 11.234375 7.476563 18.054687 7.476563 6.820313 0 13.234376-2.65625 18.054688-7.476563 2.25-2.25 6.234375-2.253906 8.484375 0l30.613281 30.609375c2.34375 2.34375 2.34375 6.144532 0 8.484375l-178.695312 178.699219c-1.125 1.125-2.652344 1.753906-4.242188 1.753906zm-22.460937-36.945312 22.457031 22.464844 170.210938-170.214844-22.460938-22.460938c-6.351562 4.605469-13.964844 7.089844-21.960938 7.089844-10.027343 0-19.453124-3.90625-26.542968-10.996094-13.1875-13.191406-14.492188-33.835937-3.902344-48.496094l-22.464844-22.46875-170.210937 170.214844 22.460937 22.457032c6.351563-4.601563 13.964844-7.085938 21.960938-7.085938 10.027344 0 19.453125 3.90625 26.542968 10.996094 7.089844 7.085937 10.996094 16.511718 10.996094 26.539062 0 7.996094-2.484375 15.609375-7.085937 21.960938zm0 0"/><path d="m266.972656 229.40625c-1.535156 0-3.070312-.585938-4.242187-1.757812l-105.816407-105.816407c-2.34375-2.34375-2.34375-6.140625 0-8.484375s6.140626-2.34375 8.484376 0l105.816406 105.816406c2.34375 2.34375 2.34375 6.144532 0 8.484376-1.167969 1.171874-2.703125 1.757812-4.242188 1.757812zm0 0"/><path d="m94.058594 255.453125c-1.535156 0-3.074219-.585937-4.242188-1.757813l-14.292968-14.292968c-1.128907-1.125-1.757813-2.648438-1.757813-4.242188 0-1.589844.628906-3.117187 1.757813-4.238281l83.472656-83.476563c1.125-1.125 2.652344-1.757812 4.242187-1.757812 1.589844 0 3.117188.632812 4.242188 1.757812l14.292969 14.292969c2.34375 2.347657 2.34375 6.144531 0 8.484375l-83.472657 83.472656c-1.171875 1.175782-2.707031 1.757813-4.242187 1.757813zm-5.8125-20.292969 5.808594 5.808594 74.988281-74.988281-5.808594-5.804688zm0 0"/><path d="m121.730469 283.128906c-1.59375 0-3.117188-.632812-4.246094-1.757812l-14.289063-14.296875c-2.34375-2.34375-2.34375-6.140625 0-8.480469l83.472657-83.472656c2.34375-2.34375 6.140625-2.34375 8.484375 0l14.292968 14.289062c1.125 1.128906 1.757813 2.652344 1.757813 4.242188 0 1.59375-.632813 3.121094-1.757813 4.242187l-83.472656 83.476563c-1.125 1.125-2.652344 1.757812-4.242187 1.757812zm-5.808594-20.292968 5.808594 5.804687 74.988281-74.988281-5.808594-5.804688zm0 0"/><path d="m191.140625 269.0625c-1.59375 0-3.117187-.628906-4.246094-1.757812l-14.292969-14.292969c-2.339843-2.34375-2.339843-6.140625 0-8.484375l41.738282-41.734375c2.34375-2.34375 6.144531-2.34375 8.484375 0l14.292969 14.292969c2.34375 2.339843 2.34375 6.136718 0 8.480468l-41.738282 41.738282c-1.121094 1.128906-2.648437 1.757812-4.238281 1.757812zm-5.8125-20.292969 5.808594 5.808594 33.25-33.253906-5.808594-5.804688zm0 0"/></g></svg>